<?xml version="1.0" standalone="no"?>
<svg xmlns="http://www.w3.org/2000/svg" viewBox="0 0 113 33" width="113" height="33"><path fill="#234A71" fill-rule="nonzero" d="M0 21.67L0 1.06L5.45 1.06Q7.92 1.06 8.98 2.65Q10.03 4.25 10.03 7.32L10.03 7.32Q10.03 10.39 9.10 11.95Q8.16 13.51 5.74 13.51L5.74 13.51L4.06 13.51L4.06 21.67L0 21.67ZM4.06 9.79L4.30 9.79Q5.04 9.79 5.39 9.52Q5.74 9.24 5.84 8.72Q5.95 8.21 5.95 7.25L5.95 7.25Q5.95 5.95 5.66 5.38Q5.38 4.80 4.51 4.80L4.51 4.80L4.06 4.80L4.06 9.79ZM16.25 21.86Q13.75 21.86 12.46 20.34Q11.16 18.82 11.16 16.06L11.16 16.06L11.16 6.24Q11.16 3.58 12.46 2.22Q13.75 0.86 16.25 0.86L16.25 0.86Q18.74 0.86 20.04 2.22Q21.34 3.58 21.34 6.24L21.34 6.24L21.34 16.06Q21.34 18.84 20.04 20.35Q18.74 21.86 16.25 21.86L16.25 21.86ZM16.25 18.07Q16.80 18.07 16.99 17.59Q17.18 17.11 17.18 16.25L17.18 16.25L17.18 6.17Q17.18 5.50 17.00 5.08Q16.82 4.66 16.27 4.66L16.27 4.66Q15.24 4.66 15.24 6.22L15.24 6.22L15.24 16.27Q15.24 17.16 15.46 17.62Q15.67 18.07 16.25 18.07L16.25 18.07ZM29.64 21.67L24.60 21.67L22.39 1.06L26.42 1.06L27.58 14.06L28.73 1.06L32.57 1.06L33.67 14.06L34.78 1.06L38.86 1.06L36.60 21.67L31.66 21.67L30.62 11.74L29.64 21.67ZM48.60 21.67L40.08 21.67L40.08 1.06L48.34 1.06L48.34 5.04L44.28 5.04L44.28 9.05L48.17 9.05L48.17 12.94L44.28 12.94L44.28 17.66L48.60 17.66L48.60 21.67ZM49.97 21.67L49.97 1.06L56.30 1.06Q57.82 1.06 58.64 1.74Q59.47 2.42 59.76 3.66Q60.05 4.90 60.05 6.82L60.05 6.82Q60.05 8.57 59.59 9.55Q59.14 10.54 58.01 10.92L58.01 10.92Q58.94 11.11 59.36 11.86Q59.78 12.60 59.78 13.87L59.78 13.87L59.74 21.67L55.70 21.67L55.70 13.61Q55.70 12.74 55.37 12.50Q55.03 12.26 54.14 12.26L54.14 12.26L54.14 21.67L49.97 21.67ZM54.17 8.69L55.15 8.69Q56.02 8.69 56.02 6.82L56.02 6.82Q56.02 6 55.94 5.59Q55.87 5.18 55.68 5.03Q55.49 4.87 55.13 4.87L55.13 4.87L54.17 4.87L54.17 8.69ZM61.22 21.67L61.22 20.69Q61.22 19.27 61.67 18.07Q62.11 16.87 62.76 15.91Q63.41 14.95 64.46 13.66L64.46 13.66Q65.54 12.31 66.18 11.38Q66.82 10.44 67.26 9.23Q67.70 8.02 67.70 6.60L67.70 6.60Q67.70 5.76 67.46 5.29Q67.22 4.82 66.60 4.82L66.60 4.82Q65.57 4.82 65.57 6.67L65.57 6.67L65.57 9.19L61.22 9.19L61.18 7.92Q61.18 5.57 61.66 4.06Q62.14 2.54 63.34 1.75Q64.54 0.96 66.65 0.96L66.65 0.96Q69.24 0.96 70.66 2.41Q72.07 3.86 72.07 6.53L72.07 6.53Q72.07 8.23 71.60 9.61Q71.14 10.99 70.45 12.02Q69.77 13.06 68.64 14.45L68.64 14.45Q67.82 15.43 67.28 16.20Q66.74 16.97 66.31 17.78L66.31 17.78L71.93 17.78L71.93 21.67L61.22 21.67ZM77.38 21.67L73.27 21.67L73.27 1.06L77.35 1.06L77.35 9.31L79.27 1.06L83.42 1.06L81.12 10.49L83.90 21.67L79.63 21.67L77.38 11.69L77.38 21.67ZM88.70 2.93L84.50 2.93L84.50 0L88.70 0L88.70 2.93ZM88.70 21.67L84.50 21.67L84.50 4.10L88.70 4.10L88.70 21.67ZM93.82 21.86Q92.28 21.86 91.50 21.13Q90.72 20.40 90.47 19.19Q90.22 17.98 90.22 16.08L90.22 16.08L90.26 8.16Q90.26 6.29 91.21 5.10Q92.16 3.91 93.89 3.91L93.89 3.91Q95.59 3.91 96.43 5.04L96.43 5.04L96.43 0.94L100.63 0.94L100.63 21.67L96.43 21.67L96.43 19.80Q96.07 20.83 95.46 21.35Q94.85 21.86 93.82 21.86L93.82 21.86ZM95.42 18.58Q96.05 18.58 96.24 17.96Q96.43 17.35 96.43 16.32L96.43 16.32L96.43 15.58L96.43 8.98Q96.43 8.21 96.22 7.68Q96 7.15 95.45 7.15L95.45 7.15Q94.82 7.15 94.62 7.64Q94.42 8.14 94.42 8.98L94.42 8.98L94.42 16.37Q94.42 18.58 95.42 18.58L95.42 18.58ZM107.14 21.86Q101.93 21.86 101.93 16.58L101.93 16.58L101.95 15.19L106.15 15.19L106.18 17.26Q106.18 17.88 106.42 18.20Q106.66 18.53 107.21 18.53L107.21 18.53Q108.05 18.53 108.05 17.16L108.05 17.16Q108.05 16.15 107.65 15.58Q107.26 15 106.39 14.35L106.39 14.35L104.16 12.62Q103.01 11.74 102.50 10.79Q102 9.84 102 8.11L102 8.11Q102 6.77 102.71 5.82Q103.42 4.87 104.59 4.39Q105.77 3.91 107.21 3.91L107.21 3.91Q112.32 3.91 112.32 9L112.32 9L112.32 9.34L107.98 9.34L107.98 8.66Q107.98 8.04 107.77 7.60Q107.57 7.15 107.09 7.15L107.09 7.15Q106.66 7.15 106.43 7.40Q106.20 7.66 106.20 8.09L106.20 8.09Q106.20 9.05 106.94 9.58L106.94 9.58L109.54 11.47Q110.93 12.50 111.67 13.72Q112.42 14.93 112.42 16.78L112.42 16.78Q112.42 19.22 111.02 20.54Q109.63 21.86 107.14 21.86L107.14 21.86Z"></path><line x1="33.724799999999995" y1="31.864" x2="78.6912" y2="31.864" stroke="#234A71" stroke-linecap="round"></line></svg>